<?xml version="1.0" standalone="no"?><svg xmlns="http://www.w3.org/2000/svg" viewBox="0 0 1440 320"><path fill="#e7008a" fill-opacity="1" d="M0,64L30,74.7C60,85,120,107,180,149.3C240,192,300,256,360,266.7C420,277,480,235,540,181.3C600,128,660,64,720,42.7C780,21,840,43,900,90.7C960,139,1020,213,1080,250.7C1140,288,1200,288,1260,250.7C1320,213,1380,139,1410,101.3L1440,64L1440,320L1410,320C1380,320,1320,320,1260,320C1200,320,1140,320,1080,320C1020,320,960,320,900,320C840,320,780,320,720,320C660,320,600,320,540,320C480,320,420,320,360,320C300,320,240,320,180,320C120,320,60,320,30,320L0,320Z"></path></svg>